<svg width="144" height="24" viewBox="0 0 144 24" fill="none" xmlns="http://www.w3.org/2000/svg">
<path d="M27.6505 0H15.2945C12.4407 0 10.1287 2.32018 10.1287 5.18058V6.89378H12.8175V5.18058C12.8175 3.81032 13.9281 2.69651 15.2945 2.69651H27.6505C28.8519 2.69651 29.8309 3.67678 29.8309 4.88316V11.7511C29.8309 13.217 28.6416 14.4097 27.1799 14.4097H22.3924H19.7037H12.819V9.59181H10.1287V17.1062H19.7021H22.3909H27.1784C30.1274 17.1062 32.5181 14.7087 32.5181 11.7511V4.88316C32.5197 2.18665 30.3393 0 27.6505 0Z" fill="#2EDCAD"/>
<path d="M22.3909 14.4097V12.6525C22.3909 9.47195 19.8202 6.8938 16.6487 6.8938H12.8175H10.1287H5.2535C2.35288 6.8938 0 9.25192 0 12.1609V18.7405C0 21.6449 2.34834 24 5.24442 24H22.3909V17.1047H19.7021V21.302H5.24442C3.83572 21.302 2.6903 20.1533 2.6903 18.7405V12.1624C2.6903 10.7451 3.84026 9.59183 5.2535 9.59183H10.1287H12.8175H16.6487C18.3313 9.59183 19.7006 10.9651 19.7006 12.6525V14.4082H22.3909V14.4097Z" fill="#1794F8"/>
<path d="M88.5287 4.60693H95.6101C97.0627 4.60693 98.3337 4.86187 99.4231 5.37173C100.531 5.88159 101.384 6.61907 101.983 7.58417C102.601 8.54927 102.909 9.68736 102.909 10.9984C102.909 12.3277 102.601 13.4749 101.983 14.44C101.384 15.4051 100.531 16.1426 99.4231 16.6525C98.3337 17.1623 97.0627 17.4173 95.6101 17.4173H91.9332V23.7268H88.5287V4.60693ZM95.5011 14.4127C98.1703 14.4127 99.5048 13.2746 99.5048 10.9984C99.5048 8.74047 98.1703 7.61149 95.5011 7.61149H91.9332V14.4127H95.5011Z" fill="#2EDCAD"/>
<path d="M108.62 24C107.385 24 106.35 23.6358 105.515 22.9074C104.698 22.1608 104.289 21.1684 104.289 19.9302C104.289 18.6737 104.716 17.6813 105.569 16.9529C106.441 16.2063 107.585 15.7602 109.001 15.6145L112.95 15.2048V14.4673C112.95 13.7572 112.714 13.22 112.242 12.8558C111.77 12.4734 111.135 12.2822 110.336 12.2822C109.628 12.2822 109.047 12.4552 108.593 12.8012C108.157 13.1471 107.875 13.657 107.748 14.3308L105.052 14.1942L104.916 14.0849C105.17 12.701 105.806 11.6449 106.822 10.9165C107.839 10.1699 109.047 9.79662 110.445 9.79662C112.097 9.79662 113.432 10.2154 114.448 11.0531C115.465 11.8725 115.974 13.0015 115.974 14.44V20.0394C115.974 20.9499 116.337 21.4051 117.063 21.4051C117.226 21.4051 117.426 21.3778 117.662 21.3232L117.744 21.3778V23.6176C117.181 23.7997 116.609 23.8907 116.028 23.8907C115.374 23.8907 114.784 23.7359 114.258 23.4264C113.749 23.1168 113.377 22.6069 113.141 21.8968H113.059C112.478 22.5341 111.807 23.044 111.044 23.4264C110.299 23.8088 109.491 24 108.62 24ZM109.192 21.4597C109.918 21.4597 110.581 21.2868 111.18 20.9408C111.779 20.5766 112.369 20.0576 112.95 19.3839V17.3899L109.41 17.7997C108.702 17.8907 108.166 18.1183 107.803 18.4825C107.44 18.8285 107.258 19.2564 107.258 19.7663C107.258 20.3126 107.44 20.7314 107.803 21.0227C108.166 21.3141 108.629 21.4597 109.192 21.4597Z" fill="#2EDCAD"/>
<path d="M124.931 24C123.333 24 122.035 23.6267 121.037 22.8801C120.038 22.1153 119.411 21.0591 119.157 19.7116L119.212 19.5478L121.799 19.1107C121.981 19.8573 122.317 20.4309 122.807 20.8315C123.297 21.2321 124.023 21.4324 124.986 21.4324C125.639 21.4324 126.184 21.2868 126.62 20.9954C127.074 20.7041 127.301 20.3034 127.301 19.7936C127.301 19.2837 127.047 18.8831 126.538 18.5918C126.03 18.2822 125.131 17.9635 123.842 17.6358C122.444 17.2898 121.4 16.7981 120.71 16.1608C120.02 15.5053 119.675 14.6494 119.675 13.5933C119.675 12.9013 119.874 12.264 120.274 11.6813C120.673 11.0986 121.236 10.6434 121.963 10.3156C122.689 9.96961 123.515 9.79662 124.441 9.79662C125.912 9.79662 127.101 10.1426 128.009 10.8346C128.917 11.5083 129.461 12.4825 129.643 13.7572L129.589 13.8937L126.947 14.2488C126.82 13.5751 126.529 13.0652 126.075 12.7192C125.639 12.355 125.086 12.1729 124.414 12.1729C123.887 12.1729 123.424 12.2822 123.025 12.5007C122.643 12.7192 122.453 13.0379 122.453 13.4567C122.453 13.8937 122.716 14.2579 123.243 14.5493C123.769 14.8406 124.695 15.1684 126.021 15.5326C127.455 15.915 128.517 16.4157 129.207 17.0349C129.897 17.654 130.242 18.4825 130.242 19.5204C130.242 20.3581 130.024 21.1229 129.589 21.8148C129.153 22.4886 128.526 23.0258 127.709 23.4264C126.91 23.8088 125.984 24 124.931 24Z" fill="#2EDCAD"/>
<path d="M137.837 24C136.239 24 134.941 23.6267 133.943 22.8801C132.944 22.1153 132.317 21.0591 132.063 19.7116L132.118 19.5478L134.705 19.1107C134.887 19.8573 135.223 20.4309 135.713 20.8315C136.203 21.2321 136.929 21.4324 137.892 21.4324C138.545 21.4324 139.09 21.2868 139.526 20.9954C139.98 20.7041 140.207 20.3034 140.207 19.7936C140.207 19.2837 139.953 18.8831 139.444 18.5918C138.936 18.2822 138.037 17.9635 136.748 17.6358C135.35 17.2898 134.306 16.7981 133.616 16.1608C132.926 15.5053 132.581 14.6494 132.581 13.5933C132.581 12.9013 132.78 12.264 133.18 11.6813C133.579 11.0986 134.142 10.6434 134.869 10.3156C135.595 9.96961 136.421 9.79662 137.347 9.79662C138.818 9.79662 140.007 10.1426 140.915 10.8346C141.823 11.5083 142.367 12.4825 142.549 13.7572L142.495 13.8937L139.853 14.2488C139.726 13.5751 139.435 13.0652 138.981 12.7192C138.545 12.355 137.992 12.1729 137.32 12.1729C136.793 12.1729 136.33 12.2822 135.931 12.5007C135.549 12.7192 135.359 13.0379 135.359 13.4567C135.359 13.8937 135.622 14.2579 136.149 14.5493C136.675 14.8406 137.601 15.1684 138.927 15.5326C140.361 15.915 141.423 16.4157 142.113 17.0349C142.803 17.654 143.148 18.4825 143.148 19.5204C143.148 20.3581 142.93 21.1229 142.495 21.8148C142.059 22.4886 141.432 23.0258 140.615 23.4264C139.816 23.8088 138.89 24 137.837 24Z" fill="#2EDCAD"/>
<path d="M49.7524 24C47.973 24 46.3389 23.5812 44.85 22.7435C43.3792 21.9059 42.2172 20.7405 41.3638 19.2473C40.5104 17.7542 40.0837 16.0607 40.0837 14.1669C40.0837 12.2731 40.5013 10.5797 41.3365 9.08649C42.1899 7.59331 43.352 6.42791 44.8227 5.59028C46.2935 4.75264 47.9276 4.33383 49.7252 4.33383C51.9041 4.33383 53.7561 4.88921 55.2813 5.99999C56.8065 7.11076 57.787 8.62215 58.2228 10.5341L58.1138 10.7253L54.9545 10.9712C54.5732 9.80576 53.9377 8.9135 53.048 8.29438C52.1764 7.65705 51.0597 7.33838 49.698 7.33838C48.4814 7.33838 47.4011 7.62973 46.4569 8.21243C45.5127 8.79513 44.7864 9.60545 44.278 10.6434C43.7696 11.6631 43.5154 12.8376 43.5154 14.1669C43.5154 15.4962 43.7696 16.6798 44.278 17.7177C44.7864 18.7375 45.5127 19.5387 46.4569 20.1214C47.4011 20.6859 48.4996 20.9681 49.7524 20.9681C51.3321 20.9681 52.585 20.5493 53.511 19.7117C54.437 18.8558 54.9908 17.6631 55.1724 16.1335H48.0638V13.3475H58.4951V14.9044C58.4951 16.6707 58.132 18.2458 57.4057 19.6297C56.6976 20.9954 55.6808 22.0698 54.3553 22.8528C53.048 23.6176 51.5137 24 49.7524 24Z" fill="#1794F8"/>
<path d="M61.5364 10.0698H64.6413V23.7269H61.5364V10.0698Z" fill="#1794F8"/>
<path d="M69.4208 12.7466H67.1058V10.0698H69.4208V7.66615C69.4208 6.28224 69.8203 5.2443 70.6192 4.55234C71.4363 3.86038 72.4622 3.5144 73.6968 3.5144C74.296 3.5144 74.9043 3.60545 75.5217 3.78755V6.35507L75.4399 6.4097C74.9497 6.24582 74.4867 6.16387 74.0509 6.16387C73.5788 6.16387 73.2066 6.29134 72.9342 6.54627C72.68 6.8012 72.5529 7.1836 72.5529 7.69346V10.0698H75.4672V12.7466H72.5529V23.7269H69.4208V12.7466Z" fill="#1794F8"/>
<path d="M83.2154 24C82.0533 24 81.1364 23.6813 80.4646 23.044C79.7927 22.3885 79.4568 21.4416 79.4568 20.2033V12.7466H76.9239V10.0698H79.4568V6.05462H79.702L82.589 7.06524V10.0698H85.6394V12.7466H82.589V19.9302C82.589 20.3854 82.7161 20.7405 82.9703 20.9954C83.2426 21.2322 83.633 21.3505 84.1414 21.3505C84.559 21.3505 84.9857 21.2959 85.4215 21.1866L85.5032 21.2413V23.7269C84.7588 23.9089 83.9961 24 83.2154 24Z" fill="#1794F8"/>
<path d="M68.5793 6.73827C68.6931 5.74181 68.31 4.89543 67.6695 4.16109C67.4012 3.85395 67.05 3.81093 66.6629 3.95299C65.2573 4.46623 64.4024 5.50771 63.8737 6.86233C63.7709 7.12545 63.747 7.42859 63.4756 7.59867C62.6556 7.83077 62.485 7.76775 62.3803 7.19348C62.3154 6.29307 62.0152 5.45568 61.4645 4.76637C60.0339 2.97754 59.3645 3.17363 58.2073 4.92144C57.7804 5.56573 57.6138 6.31208 58.1994 7.0104C58.5106 7.48462 59.0742 7.58766 59.4952 7.90081C59.5272 7.92382 59.5611 7.94283 59.599 7.95483C60.3751 8.19794 61.1313 8.5301 61.9623 8.5371C62.0521 8.5381 62.1369 8.57212 62.2067 8.62814C62.6127 8.95329 63.1005 8.93728 63.5864 8.86725C63.9305 8.81723 64.0054 8.58412 63.8567 8.27698C64.9042 8.46006 65.9367 8.30499 66.9682 8.13992C67.0101 8.13291 67.049 8.11691 67.0859 8.0979C67.3603 7.95283 67.7074 7.97284 67.9409 7.73273C68.3329 7.51763 68.5324 7.15046 68.5793 6.73827ZM67.1039 5.94191C67.0919 6.00093 67.075 6.05596 67.056 6.10898C66.8784 6.60421 66.4205 6.83232 65.9926 7.05942C65.6125 7.26151 65.1925 7.38657 64.7855 7.53864C64.7565 7.54965 64.7276 7.55965 64.6987 7.57166C64.6348 7.52764 64.4084 7.56565 64.5191 7.4476C65.2284 6.69425 65.9507 5.9389 67.1039 5.94191ZM59.4573 5.7088C59.4464 5.67478 59.4334 5.64277 59.4244 5.60775C59.6938 5.4987 59.9122 5.64677 60.1048 5.78583C60.818 6.30207 61.4076 6.92236 61.649 7.80576C61.6081 7.77975 61.5662 7.75474 61.5253 7.72973C60.6804 7.21349 59.7945 6.74027 59.4573 5.7088Z" fill="#1794F8"/>
</svg>
