<svg width="262" height="262" viewBox="0 0 262 262" fill="none" xmlns="http://www.w3.org/2000/svg">
<rect width="262" height="262" rx="24" fill="#1B45F5"/>
<path d="M159.406 167.451L135.072 97.0133H156.795L171.858 148.175L165.486 148.322L182.139 97.0133H200.101L216.902 148.322L210.382 148.175L225.592 97.0133H247.316L222.981 167.451H204.878L188.512 118.754H194.016L177.363 167.451H159.401H159.406Z" fill="white"/>
<path d="M80.7854 167.451V97.0133H102.943V167.451H80.7854ZM102.949 128.753L93.6774 121.506C95.5103 113.295 98.6007 106.916 102.949 102.376C107.291 97.8366 113.326 95.5639 121.052 95.5639C124.43 95.5639 127.374 96.094 129.889 97.1599C132.494 98.1243 134.767 99.6695 136.696 101.796L123.516 118.46C122.552 117.395 121.345 116.577 119.896 115.996C118.446 115.415 116.805 115.127 114.972 115.127C111.301 115.127 108.357 116.289 106.135 118.607C104.009 120.829 102.949 124.213 102.949 128.753Z" fill="white"/>
<path d="M37.1297 199.05C32.0147 199.05 27.6666 198.181 24.0967 196.438C20.5269 194.797 17.3857 192.429 14.6843 189.338L28.4448 175.572C29.5051 176.83 30.6161 177.698 31.7778 178.183C32.838 178.764 34.0956 179.052 35.545 179.052C37.6711 179.052 39.4081 178.426 40.756 177.168C42.2053 175.911 42.9272 173.982 42.9272 171.371V97.0132H65.085V171.077C65.085 176.779 63.8781 181.708 61.4644 185.859C59.0506 190.015 55.7177 193.252 51.4711 195.57C47.3204 197.888 42.5381 199.05 37.1354 199.05H37.1297ZM54.2176 87.302C50.7436 87.302 47.8449 86.1402 45.527 83.8223C43.305 81.4086 42.194 78.5099 42.194 75.1262C42.194 71.7425 43.305 68.7479 45.527 66.43C47.8449 64.1122 50.7436 62.9504 54.2176 62.9504C57.6915 62.9504 60.5395 64.1122 62.7615 66.43C64.9834 68.7479 66.0944 71.6466 66.0944 75.1262C66.0944 78.6058 64.9834 81.4086 62.7615 83.8223C60.5395 86.1402 57.6915 87.302 54.2176 87.302Z" fill="white"/>
</svg>
