<svg width="585" height="250" viewBox="0 0 585 250" fill="none" xmlns="http://www.w3.org/2000/svg">
<g clip-path="url(#clip0_17_603)">
<path d="M428.52 193.5L385.37 68.6001H423.89L450.6 159.32L439.3 159.58L468.83 68.6001H500.68L530.47 159.58L518.91 159.32L545.88 68.6001H584.4L541.25 193.5H509.15L480.13 107.15H489.89L460.36 193.5H428.51H428.52Z" fill="white"/>
<path d="M289.11 193.5V68.6H328.4V193.5H289.11ZM328.41 124.88L311.97 112.03C315.22 97.47 320.7 86.16 328.41 78.11C336.11 70.06 346.81 66.03 360.51 66.03C366.5 66.03 371.72 66.97 376.18 68.86C380.8 70.57 384.83 73.31 388.25 77.08L364.88 106.63C363.17 104.74 361.03 103.29 358.46 102.26C355.89 101.23 352.98 100.72 349.73 100.72C343.22 100.72 338 102.78 334.06 106.89C330.29 110.83 328.41 116.83 328.41 124.88Z" fill="white"/>
<path d="M211.7 249.53C202.63 249.53 194.92 247.99 188.59 244.9C182.26 241.99 176.69 237.79 171.9 232.31L196.3 207.9C198.18 210.13 200.15 211.67 202.21 212.53C204.09 213.56 206.32 214.07 208.89 214.07C212.66 214.07 215.74 212.96 218.13 210.73C220.7 208.5 221.98 205.08 221.98 200.45V68.5999H261.27V199.93C261.27 210.04 259.13 218.78 254.85 226.14C250.57 233.51 244.66 239.25 237.13 243.36C229.77 247.47 221.29 249.53 211.71 249.53H211.7ZM242 51.38C235.84 51.38 230.7 49.3199 226.59 45.2099C222.65 40.9299 220.68 35.79 220.68 29.79C220.68 23.79 222.65 18.48 226.59 14.37C230.7 10.26 235.84 8.19995 242 8.19995C248.16 8.19995 253.21 10.26 257.15 14.37C261.09 18.48 263.06 23.62 263.06 29.79C263.06 35.96 261.09 40.9299 257.15 45.2099C253.21 49.3199 248.16 51.38 242 51.38Z" fill="white"/>
<path d="M88.9 205.93H73.23L162.38 0H178.06L88.9 205.93Z" fill="#1B45F5"/>
<path d="M20.82 96.5001C9.41 96.5001 0 87.0901 0 75.6701C0 64.2501 9.41 54.8401 20.82 54.8401C32.23 54.8401 41.64 64.2501 41.64 75.6701C41.64 87.0901 32.24 96.5001 20.82 96.5001ZM20.82 193.5C9.41 193.5 0 184.09 0 172.67C0 161.25 9.41 151.84 20.82 151.84C32.23 151.84 41.64 161.25 41.64 172.67C41.64 184.09 32.24 193.5 20.82 193.5Z" fill="#1B45F5"/>
</g>
<defs>
<clipPath id="clip0_17_603">
<rect width="584.41" height="249.53" fill="white"/>
</clipPath>
</defs>
</svg>
