<svg width="327" height="78" viewBox="0 0 327 78" fill="none" xmlns="http://www.w3.org/2000/svg">
<g clip-path="url(#clip0_30_15203)">
<mask id="mask0_30_15203" style="mask-type:luminance" maskUnits="userSpaceOnUse" x="0" y="0" width="327" height="78">
<path d="M0 0H327V78H0V0Z" fill="white"/>
</mask>
<g mask="url(#mask0_30_15203)">
<path d="M0 78V0H66L76 2L84 7L89 15C91.302 21.1242 91.302 27.8758 89 34L84 41C80.5537 44.6986 75.9849 47.1588 71 48L90 78H69L50 48H18V78H0ZM18 30H66L71 29L72 24L71 20C70 18 68 18 66 18H18V30ZM123 78L114 76C109.527 74.3415 105.68 71.333 102.993 67.3914C100.305 63.4497 98.9099 58.7698 99 54V24L101 15L106 7C108 4 111 3 114 2C117 0 120 0 123 0H166C169 0 172 0 175 2L183 7C185 9 187 11 188 15L189 24V54L188 63L183 71L175 76L166 78H123ZM166 60C167 60 169 60 170 58L171 54V24L170 20C169 18 167 18 166 18H123C122 18 120 18 119 20C117 21 117 23 117 24V54C117 55 117 57 119 58C120 60 122 60 123 60H166ZM247 78V0H265V60H327V78H247ZM206 44H201V41L234 2L235 0H236V3L227 25V27C226 28 226 29 228 29H234C236 29 236 29 235 31L231 52L225 75V77L224 78H200C198 78 197 78 198 75L199 74L212 47C213 45 213 44 210 44H206Z" fill="black"/>
</g>
</g>
<defs>
<clipPath id="clip0_30_15203">
<rect width="327" height="78" fill="white"/>
</clipPath>
</defs>
</svg>
